<?xml version="1.0" standalone="no"?>
<!DOCTYPE svg PUBLIC "-//W3C//DTD SVG 20010904//EN"
 "http://www.w3.org/TR/2001/REC-SVG-20010904/DTD/svg10.dtd">
<svg version="1.0" xmlns="http://www.w3.org/2000/svg"
 width="640.000000pt" height="480.000000pt" viewBox="0 0 640.000000 480.000000"
 preserveAspectRatio="xMidYMid meet">

<g transform="translate(0.000000,480.000000) scale(0.100000,-0.100000)"
fill="#000000" stroke="none">
<path d="M447 4793 c-5 -10 -37 -119 -71 -243 -15 -52 -36 -125 -47 -162 l-20
-68 -92 0 c-117 0 -157 -11 -188 -52 l-24 -33 0 -1815 0 -1815 28 -130 c45
-203 120 -342 238 -435 l51 -40 2889 0 2888 0 53 43 c117 95 176 202 220 397
l23 105 3 1620 c2 1146 0 1657 -8 1745 -32 358 -121 526 -340 639 -91 47 -235
88 -361 101 -54 5 -437 10 -891 10 l-798 0 0 70 0 70 -800 0 -800 0 0 -64 0
-64 -352 -7 c-400 -8 -364 -16 -395 82 l-17 53 -592 0 c-326 0 -595 -3 -597
-7z m3353 -673 l0 -600 -600 0 -600 0 0 600 0 600 600 0 600 0 0 -600z m-3066
493 c-8 -27 -21 -79 -30 -118 -8 -38 -22 -94 -31 -122 -15 -47 -20 -53 -44
-53 -15 0 -30 3 -32 8 -3 4 5 43 18 87 13 44 33 117 45 163 22 82 22 82 56 82
l33 0 -15 -47z m139 14 c-3 -19 -13 -94 -22 -168 l-16 -134 -50 0 c-27 0 -50
5 -49 10 1 6 18 81 39 168 l38 157 33 0 c32 0 33 -1 27 -33z m145 -134 l-3
-168 -49 -3 c-27 -2 -52 0 -57 5 -7 7 24 278 37 321 2 6 19 12 39 12 l35 0 -2
-167z m147 35 c10 -73 19 -149 19 -168 1 -35 1 -35 -46 -38 l-48 -3 0 170 0
171 28 0 28 0 19 -132z m162 -30 c22 -90 38 -166 36 -170 -7 -13 -88 -9 -101
4 -7 7 -12 27 -12 45 0 32 -25 216 -35 261 -5 20 -2 22 33 22 l39 0 40 -162z
m100 97 c20 -47 27 -83 31 -162 4 -106 -6 -135 -27 -70 -13 44 -71 277 -71
289 0 5 9 8 21 6 15 -2 28 -20 46 -63z m973 -545 l0 -350 -448 0 c-247 0 -726
-3 -1065 -7 l-617 -6 0 180 0 180 287 6 c157 4 464 7 682 7 371 0 398 1 425
19 57 38 66 65 66 192 0 64 3 119 7 122 3 4 154 7 335 7 l328 0 0 -350z m3381
318 c162 -44 229 -90 280 -191 42 -81 60 -186 62 -352 l2 -140 -1060 0 -1060
0 -3 358 -2 358 842 -3 843 -4 96 -26z m-3376 -970 c6 -17 23 -41 38 -52 28
-21 37 -21 743 -24 785 -3 767 -4 802 58 l17 30 1063 0 1062 0 -3 -1432 c-3
-1601 0 -1530 -72 -1648 -63 -104 -173 -158 -364 -179 -132 -14 -4832 -15
-4968 -1 -273 29 -388 135 -433 396 -19 112 -20 166 -20 1494 l0 1379 53 3
c28 2 507 5 1062 6 l1011 2 9 -32z"/>
<path d="M2818 4499 c-17 -9 -18 -38 -18 -379 l0 -369 22 -15 c19 -14 72 -16
378 -16 306 0 359 2 378 16 l22 15 0 368 c0 272 -3 370 -12 379 -16 16 -744
17 -770 1z m462 -246 c64 -33 95 -83 95 -153 -1 -87 -49 -146 -137 -171 -83
-22 -176 34 -202 122 -13 43 -13 55 -1 97 17 56 57 98 111 117 56 20 74 18
134 -12z"/>
<path d="M2910 3114 c-540 -113 -940 -495 -1086 -1039 -26 -94 -27 -113 -28
-325 -1 -218 0 -229 28 -335 31 -118 68 -217 113 -305 93 -181 229 -344 399
-480 78 -62 246 -156 344 -191 129 -48 276 -80 390 -87 279 -17 478 21 735
139 46 21 175 101 230 143 113 86 249 234 332 364 274 429 284 1019 23 1448
-22 36 -40 68 -40 70 0 2 -16 25 -36 51 -140 184 -294 315 -487 416 -120 64
-204 93 -362 128 -176 38 -381 40 -555 3z m460 -255 c93 -13 224 -56 317 -102
65 -33 202 -121 213 -137 3 -4 25 -24 50 -45 52 -43 169 -187 203 -247 60
-109 78 -150 107 -237 39 -118 50 -195 50 -346 0 -192 -21 -294 -92 -459 -39
-89 -78 -154 -147 -241 -53 -68 -179 -195 -193 -195 -4 0 -13 -7 -22 -15 -8
-8 -50 -37 -94 -63 -293 -178 -664 -210 -982 -85 -133 52 -206 95 -320 189
-189 156 -313 353 -376 599 -25 98 -28 127 -28 270 0 140 3 173 26 260 14 55
40 134 57 175 153 361 495 629 866 679 44 6 94 13 110 15 39 5 161 -2 255 -15z"/>
<path d="M3033 2600 c-118 -17 -308 -103 -389 -175 -6 -5 -29 -26 -51 -46
-170 -153 -277 -398 -277 -634 0 -477 385 -866 859 -867 345 -1 647 187 792
492 65 139 78 199 78 375 -1 149 -3 166 -29 249 -104 320 -369 554 -687 606
-72 11 -218 11 -296 0z m279 -445 c334 -97 409 -553 126 -761 -179 -132 -431
-103 -580 65 -111 127 -139 302 -71 454 91 207 306 305 525 242z"/>
<path d="M1848 3090 c-46 -14 -90 -51 -109 -94 -24 -54 -24 -81 5 -141 39 -84
133 -117 216 -75 62 32 90 76 90 145 0 41 -6 67 -21 91 -36 58 -119 93 -181
74z"/>
</g>
</svg>
